<?xml version="1.0" encoding="UTF-8"?>
<svg id="Layer_1" xmlns="http://www.w3.org/2000/svg" version="1.1" viewBox="0 0 1400 520">
  <!-- Generator: Adobe Illustrator 29.6.0, SVG Export Plug-In . SVG Version: 2.1.1 Build 207)  -->
  <defs>
    <style>
      .st0, .st1, .st2, .st3 {
        fill: #fff;
      }

      .st0, .st1, .st4, .st5, .st6, .st7, .st8, .st9, .st10, .st11, .st12, .st13, .st14, .st15, .st16, .st3, .st17, .st18 {
        isolation: isolate;
      }

      .st0, .st1, .st7, .st3 {
        font-family: Times-Bold, Times;
        font-weight: 700;
      }

      .st0, .st7 {
        font-size: 64px;
      }

      .st19 {
        fill: #111;
      }

      .st20 {
        fill: #444;
      }

      .st1 {
        font-size: 53px;
      }

      .st21 {
        stroke: #2a2a2a;
      }

      .st21, .st22, .st23, .st8, .st9, .st10, .st11, .st12, .st13, .st14, .st15 {
        fill: none;
      }

      .st22 {
        stroke: #222;
      }

      .st4, .st5, .st6, .st18 {
        font-family: Times-Roman, Times;
      }

      .st4, .st6 {
        font-size: 15px;
      }

      .st4, .st7, .st17 {
        fill: #999;
      }

      .st24 {
        fill: #666;
      }

      .st5 {
        font-size: 23px;
      }

      .st5, .st6, .st18 {
        fill: #777;
      }

      .st23 {
        stroke: #333;
      }

      .st8 {
        opacity: .05;
      }

      .st8, .st9, .st10, .st11, .st12, .st13, .st14, .st15 {
        stroke: #fff;
      }

      .st9 {
        opacity: .05;
      }

      .st10 {
        opacity: .02;
      }

      .st11 {
        opacity: .06;
      }

      .st12 {
        opacity: .04;
      }

      .st13 {
        opacity: .03;
      }

      .st14 {
        opacity: .04;
      }

      .st15 {
        opacity: .02;
      }

      .st25 {
        fill: #2a2a2a;
      }

      .st16 {
        fill: #555;
      }

      .st16, .st17 {
        font-family: Helvetica, Helvetica;
        font-size: 7px;
      }

      .st26 {
        fill: #333;
      }

      .st3 {
        font-size: 52px;
      }

      .st27 {
        fill: #161616;
      }

      .st28 {
        fill: #222;
      }

      .st18 {
        font-size: 12px;
      }
    </style>
  </defs>
  <rect class="st19" width="1400" height="520"/>
  <circle class="st11" cx="1400" r="200"/>
  <circle class="st8" cx="1400" r="280"/>
  <circle class="st9" cx="1400" r="360"/>
  <circle class="st12" cx="1400" r="440"/>
  <circle class="st14" cx="1400" r="520"/>
  <circle class="st13" cx="1400" r="600"/>
  <circle class="st10" cx="1400" r="680"/>
  <circle class="st15" cx="1400" r="760"/>
  <text class="st5" transform="translate(80 98)"><tspan x="0" y="0">A goal less than</tspan></text>
  <text class="st0" transform="translate(80 170)"><tspan x="0" y="0">1% of people</tspan></text>
  <text class="st7" transform="translate(80 237)"><tspan x="0" y="0">will ever finish.</tspan></text>
  <line class="st23" x1="80" y1="276" x2="480" y2="276"/>
  <text class="st6" transform="translate(80 316)"><tspan x="0" y="0">People sign up for reasons that don&apos;t</tspan></text>
  <text class="st6" transform="translate(80 338)"><tspan x="0" y="0">show up in health dashboards.</tspan></text>
  <text class="st4" transform="translate(80 373)"><tspan x="0" y="0">MARA was built for the moment</tspan></text>
  <text class="st4" transform="translate(80 393)"><tspan x="0" y="0">someone makes that decision.</tspan></text>
  <line class="st22" x1="530" y1="60" x2="530" y2="460"/>
  <rect class="st27" x="570" y="80" width="240" height="360" rx="10" ry="10"/>
  <path class="st26" d="M572,80h236c1.1,0,2,.9,2,2h0c0,1.1-.9,2-2,2h-236c-1.1,0-2-.9-2-2h0c0-1.1.9-2,2-2Z"/>
  <text class="st3" transform="translate(612.26 190)"><tspan x="0" y="0">&lt;0.2%</tspan></text>
  <line class="st21" x1="594" y1="210" x2="786" y2="210"/>
  <text class="st18" transform="translate(620.79 248)"><tspan x="0" y="0">of people alive today have ever</tspan></text>
  <text class="st18" transform="translate(623.58 266)"><tspan x="0" y="0">crossed a marathon finish line</tspan></text>
  <circle class="st2" cx="655" cy="350" r="4"/>
  <circle class="st26" cx="669" cy="350" r="4"/>
  <circle class="st26" cx="683" cy="350" r="4"/>
  <circle class="st26" cx="697" cy="350" r="4"/>
  <circle class="st26" cx="711" cy="350" r="4"/>
  <circle class="st26" cx="655" cy="364" r="4"/>
  <circle class="st26" cx="669" cy="364" r="4"/>
  <circle class="st26" cx="683" cy="364" r="4"/>
  <circle class="st26" cx="697" cy="364" r="4"/>
  <circle class="st26" cx="711" cy="364" r="4"/>
  <circle class="st26" cx="655" cy="378" r="4"/>
  <circle class="st26" cx="669" cy="378" r="4"/>
  <circle class="st26" cx="683" cy="378" r="4"/>
  <circle class="st26" cx="697" cy="378" r="4"/>
  <circle class="st26" cx="711" cy="378" r="4"/>
  <circle class="st26" cx="655" cy="392" r="4"/>
  <circle class="st26" cx="669" cy="392" r="4"/>
  <circle class="st26" cx="683" cy="392" r="4"/>
  <circle class="st26" cx="697" cy="392" r="4"/>
  <circle class="st26" cx="711" cy="392" r="4"/>
  <rect class="st27" x="834" y="80" width="240" height="360" rx="10" ry="10"/>
  <path class="st26" d="M836,80h236c1.1,0,2,.9,2,2h0c0,1.1-.9,2-2,2h-236c-1.1,0-2-.9-2-2h0c0-1.1.9-2,2-2Z"/>
  <text class="st1" transform="translate(886.24 190)"><tspan x="0" y="0">+3 yrs</tspan></text>
  <line class="st21" x1="858" y1="210" x2="1050" y2="210"/>
  <text class="st18" transform="translate(896.74 248)"><tspan x="0" y="0">average longevity gain for</tspan></text>
  <text class="st18" transform="translate(888.96 266)"><tspan x="0" y="0">regular long-distance runners</tspan></text>
  <rect class="st25" x="920" y="386" width="10" height="12" rx="2" ry="2"/>
  <rect class="st25" x="937" y="376" width="10" height="22" rx="2" ry="2"/>
  <rect class="st25" x="954" y="366" width="10" height="32" rx="2" ry="2"/>
  <rect class="st20" x="971" y="356" width="10" height="42" rx="2" ry="2"/>
  <rect class="st20" x="988" y="346" width="10" height="52" rx="2" ry="2"/>
  <rect class="st24" x="971" y="356" width="10" height="42" rx="2" ry="2"/>
  <rect class="st2" x="988" y="346" width="10" height="52" rx="2" ry="2"/>
  <rect class="st27" x="1098" y="80" width="240" height="360" rx="10" ry="10"/>
  <path class="st26" d="M1100,80h236c1.1,0,2,.9,2,2h0c0,1.1-.9,2-2,2h-236c-1.1,0-2-.9-2-2h0c0-1.1.9-2,2-2Z"/>
  <text class="st3" transform="translate(1147.18 190)"><tspan x="0" y="0">16–20</tspan></text>
  <line class="st21" x1="1122" y1="210" x2="1314" y2="210"/>
  <text class="st18" transform="translate(1138.79 248)"><tspan x="0" y="0">weeks of structured training needed</tspan></text>
  <text class="st18" transform="translate(1157.41 266)"><tspan x="0" y="0">to reach the start line ready</tspan></text>
  <path class="st28" d="M1125,370h186c1.66,0,3,1.34,3,3h0c0,1.66-1.34,3-3,3h-186c-1.66,0-3-1.34-3-3h0c0-1.66,1.34-3,3-3Z"/>
  <path class="st2" d="M1270,370h41c1.66,0,3,1.34,3,3h0c0,1.66-1.34,3-3,3h-41c-1.66,0-3-1.34-3-3h0c0-1.66,1.34-3,3-3Z"/>
  <line class="st23" x1="1122" y1="364" x2="1122" y2="382"/>
  <text class="st16" transform="translate(1120.05 392)"><tspan x="0" y="0">0</tspan></text>
  <line class="st23" x1="1179" y1="364" x2="1179" y2="382"/>
  <text class="st16" transform="translate(1177.05 392)"><tspan x="0" y="0">6</tspan></text>
  <line class="st23" x1="1237" y1="364" x2="1237" y2="382"/>
  <text class="st16" transform="translate(1233.11 392)"><tspan x="0" y="0">12</tspan></text>
  <line class="st23" x1="1285" y1="364" x2="1285" y2="382"/>
  <text class="st17" transform="translate(1281.11 392)"><tspan x="0" y="0">17</tspan></text>
  <line class="st23" x1="1314" y1="364" x2="1314" y2="382"/>
  <text class="st17" transform="translate(1310.11 392)"><tspan x="0" y="0">20</tspan></text>
  <text class="st17" transform="translate(1275 360)"><tspan x="0" y="0">wk 16–20</tspan></text>
</svg>